<svg id="Слой_2" data-name="Слой 2" xmlns="http://www.w3.org/2000/svg" viewBox="0 0 157.7 108.81"><defs><style>.cls-1{fill:#12ad3e;}.cls-2{fill:#515151;}</style></defs><circle class="cls-1" cx="62.9" cy="54.4" r="32.4"/><path class="cls-2" d="M161.1,56a54.64,54.64,0,0,0-54-53.1A52.93,52.93,0,0,0,86,7c-6.8,2.8-7.9,12.3-1.8,16.4,3.5,2.4,8.3,3.8,16.3,2.1a32.07,32.07,0,0,1,6.3-.6c17.9,0,30.9,14.5,30.9,32.4s-13.1,32.4-30.9,32.4a33.6,33.6,0,0,1-6.3-.6c-8-1.7-12.8-.3-16.3,2.1A9.43,9.43,0,0,0,86,107.6a53.28,53.28,0,0,0,21.1,4.1,54.64,54.64,0,0,0,54-53.1V56Z" transform="translate(-3.4 -2.9)"/><path class="cls-2" d="M25.5,57.3c0-5.8,2-10.6,2.9-16,1.2-6.7-1.3-12.5-6.6-14.6s-9.7.8-12,5a54.4,54.4,0,0,0,0,51.2c2.3,4.2,6.7,7.1,12,5s7.8-7.9,6.6-14.6C27.5,67.9,25.5,63.1,25.5,57.3Z" transform="translate(-3.4 -2.9)"/></svg>