<svg xmlns="http://www.w3.org/2000/svg" width="26" height="20" viewBox="0 0 26 20">
  <g id="ic-card" transform="translate(0 -2.452)">
    <path id="Прямоугольник_106" data-name="Прямоугольник 106" d="M2-1H22a3,3,0,0,1,3,3V16a3,3,0,0,1-3,3H2a3,3,0,0,1-3-3V2A3,3,0,0,1,2-1ZM22,17a1,1,0,0,0,1-1V2a1,1,0,0,0-1-1H2A1,1,0,0,0,1,2V16a1,1,0,0,0,1,1Z" transform="translate(1 3.452)" fill="#979797"/>
    <path id="Линия_11" data-name="Линия 11" d="M24,1H0A1,1,0,0,1-1,0,1,1,0,0,1,0-1H24a1,1,0,0,1,1,1A1,1,0,0,1,24,1Z" transform="translate(1 9.452)" fill="#979797"/>
    <path id="Линия_12" data-name="Линия 12" d="M4,1H0A1,1,0,0,1-1,0,1,1,0,0,1,0-1H4A1,1,0,0,1,5,0,1,1,0,0,1,4,1Z" transform="translate(5 16.452)" fill="#979797"/>
    <path id="Контур_92" data-name="Контур 92" d="M15.174,12a3.143,3.143,0,0,1,1.631.458A3.143,3.143,0,0,1,18.435,12a3.174,3.174,0,0,1,0,6.348A3.143,3.143,0,0,1,16.8,17.89a3.143,3.143,0,0,1-1.631.458,3.174,3.174,0,1,1,0-6.348ZM16.8,14.75a1,1,0,0,1-.753-.342A1.155,1.155,0,0,0,15.174,14a1.174,1.174,0,1,0,0,2.348,1.155,1.155,0,0,0,.878-.408,1,1,0,0,1,1.506,0,1.155,1.155,0,0,0,.878.408,1.174,1.174,0,0,0,0-2.348,1.155,1.155,0,0,0-.878.408A1,1,0,0,1,16.8,14.75Z" transform="translate(1.045 0.788)" fill="#979797"/>
  </g>
</svg>
