<svg xmlns="http://www.w3.org/2000/svg" width="32.462" height="24" viewBox="0 0 32.462 24">
  <g id="ic-cash-green" transform="translate(0 -3.556)">
    <path id="Контур_91" data-name="Контур 91" d="M24.487,27.556a59.7,59.7,0,0,1-8.4-.625,57.7,57.7,0,0,0-8.115-.605,31.412,31.412,0,0,0-6.733.586A1,1,0,0,1,0,25.94V5.171A1,1,0,0,1,.756,4.2a32.256,32.256,0,0,1,7.2-.646,59.84,59.84,0,0,1,8.4.625,57.9,57.9,0,0,0,8.128.605A31.44,31.44,0,0,0,31.22,4.2a1,1,0,0,1,1.241.971V25.94a1,1,0,0,1-.758.97A32.537,32.537,0,0,1,24.487,27.556ZM7.974,24.325a59.7,59.7,0,0,1,8.4.625,57.7,57.7,0,0,0,8.115.605,36.436,36.436,0,0,0,5.974-.438V6.376a39.411,39.411,0,0,1-5.98.41,59.9,59.9,0,0,1-8.41-.625,57.836,57.836,0,0,0-8.119-.605A36.174,36.174,0,0,0,2,5.993V24.735A39.363,39.363,0,0,1,7.974,24.325Z" fill="#589442"/>
    <path id="Линия_9" data-name="Линия 9" d="M1.511,1H0A1,1,0,0,1-1,0,1,1,0,0,1,0-1H1.511a1,1,0,0,1,1,1A1,1,0,0,1,1.511,1Z" transform="translate(5.532 14.863)" fill="#589442"/>
    <path id="Линия_10" data-name="Линия 10" d="M1.511,1H0A1,1,0,0,1-1,0,1,1,0,0,1,0-1H1.511a1,1,0,0,1,1,1A1,1,0,0,1,1.511,1Z" transform="translate(25.419 14.863)" fill="#589442"/>
    <path id="Эллипс_18" data-name="Эллипс 18" d="M5.287-1A6.287,6.287,0,1,1-1,5.287,6.294,6.294,0,0,1,5.287-1Zm0,10.574A4.287,4.287,0,1,0,1,5.287,4.292,4.292,0,0,0,5.287,9.574Z" transform="translate(11.082 10.269)" fill="#589442"/>
  </g>
</svg>
