<svg xmlns="http://www.w3.org/2000/svg" width="32" height="24" viewBox="0 0 32 24">
  <g id="ic-card-green" transform="translate(0 -3)">
    <path id="Прямоугольник_106" data-name="Прямоугольник 106" d="M2-1H28a3,3,0,0,1,3,3V20a3,3,0,0,1-3,3H2a3,3,0,0,1-3-3V2A3,3,0,0,1,2-1ZM28,21a1,1,0,0,0,1-1V2a1,1,0,0,0-1-1H2A1,1,0,0,0,1,2V20a1,1,0,0,0,1,1Z" transform="translate(1 4)" fill="#589442"/>
    <path id="Линия_11" data-name="Линия 11" d="M30,1H0A1,1,0,0,1-1,0,1,1,0,0,1,0-1H30a1,1,0,0,1,1,1A1,1,0,0,1,30,1Z" transform="translate(1 10)" fill="#589442"/>
    <path id="Линия_12" data-name="Линия 12" d="M5,1H0A1,1,0,0,1-1,0,1,1,0,0,1,0-1H5A1,1,0,0,1,6,0,1,1,0,0,1,5,1Z" transform="translate(6 19)" fill="#589442"/>
    <path id="Контур_92" data-name="Контур 92" d="M15.741,12a3.707,3.707,0,0,1,2.056.626A3.707,3.707,0,0,1,19.854,12a3.742,3.742,0,0,1,0,7.483,3.707,3.707,0,0,1-2.056-.626,3.707,3.707,0,0,1-2.056.626,3.742,3.742,0,0,1,0-7.483ZM17.8,14.946a1,1,0,0,1-.753-.342,1.714,1.714,0,0,0-1.3-.6,1.742,1.742,0,0,0,0,3.483,1.714,1.714,0,0,0,1.3-.6,1,1,0,0,1,1.506,0,1.714,1.714,0,0,0,1.3.6,1.742,1.742,0,0,0,0-3.483,1.714,1.714,0,0,0-1.3.6A1,1,0,0,1,17.8,14.946Z" transform="translate(4.449 3.337)" fill="#589442"/>
  </g>
</svg>
