<svg xmlns="http://www.w3.org/2000/svg" width="24" height="24" viewBox="0 0 24 24">
  <g id="ic-cart-green" transform="translate(0 0)">
    <path id="Прямоугольник_87" data-name="Прямоугольник 87" d="M0-1H22a1,1,0,0,1,1,1V4a1,1,0,0,1-1,1H0A1,1,0,0,1-1,4V0A1,1,0,0,1,0-1ZM21,1H1V3H21Z" transform="translate(1 8)" fill="#386b26"/>
    <path id="Контур_85" data-name="Контур 85" d="M20,24H4a1,1,0,0,1-.984-.821l-2-11A1,1,0,0,1,2,11H22a1,1,0,0,1,.984,1.179l-2,11A1,1,0,0,1,20,24ZM4.835,22H19.165L20.8,13H3.2Z" fill="#386b26"/>
    <path id="Линия_2" data-name="Линия 2" d="M0,8a1,1,0,0,1-.393-.081A1,1,0,0,1-.919,6.606l3-7A1,1,0,0,1,3.394-.919,1,1,0,0,1,3.919.394l-3,7A1,1,0,0,1,0,8Z" transform="translate(5 1)" fill="#386b26"/>
    <path id="Линия_3" data-name="Линия 3" d="M3,8a1,1,0,0,1-.92-.606l-3-7A1,1,0,0,1-.394-.919,1,1,0,0,1,.919-.394l3,7A1,1,0,0,1,3,8Z" transform="translate(16 1)" fill="#386b26"/>
    <path id="Линия_4" data-name="Линия 4" d="M1,6a1,1,0,0,1-.98-.8l-1-5A1,1,0,0,1-.2-.981,1,1,0,0,1,.981-.2l1,5A1,1,0,0,1,1,6Z" transform="translate(7 15)" fill="#386b26"/>
    <path id="Линия_5" data-name="Линия 5" d="M0,6a1,1,0,0,1-.2-.02A1,1,0,0,1-.981,4.8l1-5A1,1,0,0,1,1.2-.981,1,1,0,0,1,1.981.2l-1,5A1,1,0,0,1,0,6Z" transform="translate(16 15)" fill="#386b26"/>
    <path id="Линия_6" data-name="Линия 6" d="M0,6A1,1,0,0,1-1,5V0A1,1,0,0,1,0-1,1,1,0,0,1,1,0V5A1,1,0,0,1,0,6Z" transform="translate(12 15)" fill="#386b26"/>
  </g>
</svg>
