<svg id="ic-date" xmlns="http://www.w3.org/2000/svg" width="24" height="24" viewBox="0 0 24 24">
  <path id="Прямоугольник_110" data-name="Прямоугольник 110" d="M2-1H20a3,3,0,0,1,3,3V17a3,3,0,0,1-3,3H2a3,3,0,0,1-3-3V2A3,3,0,0,1,2-1ZM20,18a1,1,0,0,0,1-1V2a1,1,0,0,0-1-1H2A1,1,0,0,0,1,2V17a1,1,0,0,0,1,1Z" transform="translate(1 4)" fill="#979797"/>
  <path id="Линия_13" data-name="Линия 13" d="M21,1H0A1,1,0,0,1-1,0,1,1,0,0,1,0-1H21a1,1,0,0,1,1,1A1,1,0,0,1,21,1Z" transform="translate(2 9)" fill="#979797"/>
  <path id="Линия_14" data-name="Линия 14" d="M0,4A1,1,0,0,1-1,3V0A1,1,0,0,1,0-1,1,1,0,0,1,1,0V3A1,1,0,0,1,0,4Z" transform="translate(5 1)" fill="#979797"/>
  <path id="Линия_15" data-name="Линия 15" d="M0,4A1,1,0,0,1-1,3V0A1,1,0,0,1,0-1,1,1,0,0,1,1,0V3A1,1,0,0,1,0,4Z" transform="translate(19 1)" fill="#979797"/>
</svg>
