<svg xmlns="http://www.w3.org/2000/svg" width="21" height="24" viewBox="0 0 21 24">
  <g id="ic-delete" transform="translate(-1.5)">
    <path id="Контур_88" data-name="Контур 88" d="M3,2.99H21.02l.5.01a1,1,0,0,1-.02,2H2.5a1,1,0,0,1-.02-2l.5-.01Z" fill="#d54747"/>
    <path id="Прямоугольник_102" data-name="Прямоугольник 102" d="M1.6-1H6.4A2.607,2.607,0,0,1,9,1.6V3A1,1,0,0,1,8,4H0A1,1,0,0,1-1,3V1.6A2.607,2.607,0,0,1,1.6-1ZM7,2V1.6A.6.6,0,0,0,6.4,1H1.6a.6.6,0,0,0-.6.6V2Z" transform="translate(8 1)" fill="#d54747"/>
    <path id="Контур_89" data-name="Контур 89" d="M19,24H5a1,1,0,0,1-1-.947l-1-19A1,1,0,0,1,4,3H20a1,1,0,0,1,1,1.053l-1,19A1,1,0,0,1,19,24ZM5.949,22h12.1l.895-17H5.054Z" fill="#d54747"/>
    <path id="Линия_7" data-name="Линия 7" d="M0,10A1,1,0,0,1-1,9V0A1,1,0,0,1,0-1,1,1,0,0,1,1,0V9A1,1,0,0,1,0,10Z" transform="translate(10 9)" fill="#d54747"/>
    <path id="Линия_8" data-name="Линия 8" d="M0,10A1,1,0,0,1-1,9V0A1,1,0,0,1,0-1,1,1,0,0,1,1,0V9A1,1,0,0,1,0,10Z" transform="translate(14 9)" fill="#d54747"/>
  </g>
</svg>
