<svg xmlns="http://www.w3.org/2000/svg" width="20" height="24" viewBox="0 0 20 24">
  <g id="ic-exit" transform="translate(-35 -373)">
    <path id="Контур_192" data-name="Контур 192" d="M2-1H15a3,3,0,0,1,3,3V20a3,3,0,0,1-3,3H2a3,3,0,0,1-3-3V2A3,3,0,0,1,2-1ZM15,21a1,1,0,0,0,1-1V2a1,1,0,0,0-1-1H2A1,1,0,0,0,1,2V20a1,1,0,0,0,1,1Z" transform="translate(36 374)" fill="#d54747"/>
    <rect id="Прямоугольник_134" data-name="Прямоугольник 134" width="8" height="16" transform="translate(47 377)" fill="#f6e6e5"/>
  </g>
</svg>
