<svg xmlns="http://www.w3.org/2000/svg" width="24" height="20" viewBox="0 0 24 20">
  <g id="ic-mail" transform="translate(-35 -289)">
    <path id="Прямоугольник_127" data-name="Прямоугольник 127" d="M2-1H20a3,3,0,0,1,3,3V16a3,3,0,0,1-3,3H2a3,3,0,0,1-3-3V2A3,3,0,0,1,2-1ZM20,17a1,1,0,0,0,1-1V2a1,1,0,0,0-1-1H2A1,1,0,0,0,1,2V16a1,1,0,0,0,1,1Z" transform="translate(36 290)" fill="#979797"/>
    <path id="Контур_188" data-name="Контур 188" d="M525.09,1774a1,1,0,0,1-.666-.254l-10.087-9a1,1,0,0,1,1.332-1.492l9.419,8.4,9.334-8.4a1,1,0,1,1,1.338,1.487l-10,9A1,1,0,0,1,525.09,1774Z" transform="translate(-478 -1473)" fill="#979797"/>
  </g>
</svg>
