<svg xmlns="http://www.w3.org/2000/svg" width="20" height="24" viewBox="0 0 20 24">
  <g id="ic-password" transform="translate(-37 -543)">
    <g id="Сгруппировать_243" data-name="Сгруппировать 243" transform="translate(2 178.464)">
      <path id="Прямоугольник_129" data-name="Прямоугольник 129" d="M2-1H16a3,3,0,0,1,3,3V12a3,3,0,0,1-3,3H2a3,3,0,0,1-3-3V2A3,3,0,0,1,2-1ZM16,13a1,1,0,0,0,1-1V2a1,1,0,0,0-1-1H2A1,1,0,0,0,1,2V12a1,1,0,0,0,1,1Z" transform="translate(36 373.536)" fill="#979797"/>
    </g>
    <path id="Прямоугольник_132" data-name="Прямоугольник 132" d="M4-1A5.006,5.006,0,0,1,9,4V9H-1V4A5.006,5.006,0,0,1,4-1ZM7,7V4A3,3,0,0,0,1,4V7Z" transform="translate(43 544)" fill="#979797"/>
  </g>
</svg>
