<svg xmlns="http://www.w3.org/2000/svg" width="18" height="24" viewBox="0 0 18 24">
  <g id="ic-phone" transform="translate(-35 -373)">
    <path id="Прямоугольник_129" data-name="Прямоугольник 129" d="M2-1H14a3,3,0,0,1,3,3V20a3,3,0,0,1-3,3H2a3,3,0,0,1-3-3V2A3,3,0,0,1,2-1ZM14,21a1,1,0,0,0,1-1V2a1,1,0,0,0-1-1H2A1,1,0,0,0,1,2V20a1,1,0,0,0,1,1Z" transform="translate(36 374)" fill="#979797"/>
    <path id="Контур_189" data-name="Контур 189" d="M525.134,1865.6H519a1,1,0,0,1,0-2h6.134a1,1,0,0,1,0,2Z" transform="translate(-478 -1473)" fill="#979797"/>
  </g>
</svg>
