<svg xmlns="http://www.w3.org/2000/svg" width="24" height="24" viewBox="0 0 24 24">
  <g id="ic-scan" transform="translate(-100 -844)">
    <path id="Контур_179" data-name="Контур 179" d="M-462,316.947a1,1,0,0,1-1-1v-7a1,1,0,0,1,1-1h7a1,1,0,0,1,1,1,1,1,0,0,1-1,1h-6v6A1,1,0,0,1-462,316.947Z" transform="translate(563 536.053)" fill="#fff"/>
    <path id="Контур_182" data-name="Контур 182" d="M-462,316.947a1,1,0,0,1-1-1v-7a1,1,0,0,1,1-1h7a1,1,0,0,1,1,1,1,1,0,0,1-1,1h-6v6A1,1,0,0,1-462,316.947Z" transform="translate(-339 1175.947) rotate(180)" fill="#fff"/>
    <path id="Контур_180" data-name="Контур 180" d="M-462,316.947a1,1,0,0,1-1-1v-7a1,1,0,0,1,1-1h7a1,1,0,0,1,1,1,1,1,0,0,1-1,1h-6v6A1,1,0,0,1-462,316.947Z" transform="translate(431.947 1307) rotate(90)" fill="#fff"/>
    <path id="Контур_181" data-name="Контур 181" d="M-462,316.947a1,1,0,0,1-1-1v-7a1,1,0,0,1,1-1h7a1,1,0,0,1,1,1,1,1,0,0,1-1,1h-6v6A1,1,0,0,1-462,316.947Z" transform="translate(-207.947 405) rotate(-90)" fill="#fff"/>
    <path id="Контур_183" data-name="Контур 183" d="M-359.969,856.391h0l-12.031,0a1,1,0,0,1-1-1,1,1,0,0,1,1-1h0l12.031,0a1,1,0,0,1,1,1A1,1,0,0,1-359.969,856.391Z" transform="translate(478 0.614)" fill="#fff"/>
  </g>
</svg>
