<svg xmlns="http://www.w3.org/2000/svg" width="20" height="20" viewBox="0 0 20 20">
  <g id="ic-search" transform="translate(-388 -25)">
    <path id="Эллипс_13" data-name="Эллипс 13" d="M8,2a6,6,0,1,0,6,6A6.007,6.007,0,0,0,8,2M8,0A8,8,0,1,1,0,8,8,8,0,0,1,8,0Z" transform="translate(388 25)" fill="#979797"/>
    <path id="Контур_86" data-name="Контур 86" d="M887.926,47.926a1,1,0,0,1-.707-.293l-5.97-5.97a1,1,0,0,1,1.414-1.414l5.97,5.97a1,1,0,0,1-.707,1.707Z" transform="translate(-480.926 -2.926)" fill="#979797"/>
  </g>
</svg>
