<svg xmlns="http://www.w3.org/2000/svg" width="32" height="32" viewBox="0 0 32 32">
  <g id="ic-user" transform="translate(-380 -82)">
    <path id="Эллипс_43" data-name="Эллипс 43" d="M16,2A14,14,0,0,0,6.1,25.9,14,14,0,0,0,25.9,6.1,13.908,13.908,0,0,0,16,2m0-2A16,16,0,1,1,0,16,16,16,0,0,1,16,0Z" transform="translate(380 82)" fill="#fff"/>
    <path id="Эллипс_42" data-name="Эллипс 42" d="M4.345-1A5.345,5.345,0,1,1-1,4.345,5.351,5.351,0,0,1,4.345-1Zm0,8.69A3.345,3.345,0,1,0,1,4.345,3.349,3.349,0,0,0,4.345,7.69Z" transform="translate(391.655 90)" fill="#fff"/>
    <path id="Контур_171" data-name="Контур 171" d="M522.47,303.11a1,1,0,0,1-1-1,6.11,6.11,0,1,0-12.22,0,1,1,0,0,1-2,0,8.11,8.11,0,1,1,16.22,0A1,1,0,0,1,522.47,303.11Z" transform="translate(-119.36 -196.31)" fill="#fff"/>
  </g>
</svg>
