<svg id="ic-user-grey" xmlns="http://www.w3.org/2000/svg" width="24" height="24" viewBox="0 0 24 24">
  <g id="Сгруппировать_226" data-name="Сгруппировать 226" transform="translate(-505.25 -282)">
    <path id="Эллипс_42" data-name="Эллипс 42" d="M5.5-1A6.5,6.5,0,1,1-1,5.5,6.507,6.507,0,0,1,5.5-1Zm0,11A4.5,4.5,0,1,0,1,5.5,4.505,4.505,0,0,0,5.5,10Z" transform="translate(511.75 284)" fill="#979797"/>
    <path id="Контур_171" data-name="Контур 171" d="M526.25,305a1,1,0,0,1-1-1,8,8,0,0,0-16,0,1,1,0,0,1-2,0,10,10,0,0,1,20,0A1,1,0,0,1,526.25,305Z" fill="#979797"/>
  </g>
  <rect id="Прямоугольник_95" data-name="Прямоугольник 95" width="24" height="24" fill="none"/>
</svg>
