<svg xmlns="http://www.w3.org/2000/svg" width="16" height="14" viewBox="0 0 16 14">
  <g id="invisible" transform="translate(0 -32.053)">
    <g id="Сгруппировать_237" data-name="Сгруппировать 237" transform="translate(0 32.053)">
      <g id="Сгруппировать_236" data-name="Сгруппировать 236" transform="translate(0 0)">
        <path id="Контур_184" data-name="Контур 184" d="M231.147,160.064l2.31,2.31.011-.121a2.2,2.2,0,0,0-2.2-2.2Z" transform="translate(-223.28 -155.628)" fill="#979797"/>
        <path id="Контур_185" data-name="Контур 185" d="M152.578,65.888a3.669,3.669,0,0,1,3.667,3.667,3.611,3.611,0,0,1-.26,1.339l2.145,2.145a8.711,8.711,0,0,0,2.519-3.484,8.679,8.679,0,0,0-8.072-5.5,8.578,8.578,0,0,0-2.923.513l1.584,1.581A3.686,3.686,0,0,1,152.578,65.888Z" transform="translate(-144.65 -62.954)" fill="#979797"/>
        <path id="Контур_186" data-name="Контур 186" d="M.726,32.992l1.656,1.68.331.335A8.718,8.718,0,0,0,0,38.685a8.6,8.6,0,0,0,7.991,5.526,8.413,8.413,0,0,0,3.186-.623l.309.313L13.6,46.053l.926-.936L1.653,32.053Zm4.017,4.071L5.866,38.2a2.367,2.367,0,0,0-.054.483A2.166,2.166,0,0,0,8.463,40.84l1.122,1.138a3.533,3.533,0,0,1-1.595.391,3.669,3.669,0,0,1-3.247-5.305Z" transform="translate(0 -32.053)" fill="#979797"/>
      </g>
    </g>
  </g>
</svg>
