<?xml version="1.0" encoding="utf-8"?>
<!-- Generator: Adobe Illustrator 25.2.0, SVG Export Plug-In . SVG Version: 6.00 Build 0)  -->
<svg version="1.1" id="Слой_2" xmlns="http://www.w3.org/2000/svg" xmlns:xlink="http://www.w3.org/1999/xlink" x="0px" y="0px"
	 viewBox="0 0 374.3 114.6" style="enable-background:new 0 0 374.3 114.6;" xml:space="preserve">
<style type="text/css">
	.st0{fill:#12AD3E;}
	.st1{fill:#515151;}
</style>
<g>
	<g>
		<circle class="st0" cx="66.3" cy="57.3" r="32.4"/>
		<path class="st1" d="M161.1,56c-0.7-29.2-24.8-52.9-54-53.1C99.6,2.8,92.5,4.3,86,7c-6.8,2.8-7.9,12.3-1.8,16.4
			c3.5,2.4,8.3,3.8,16.3,2.1c2-0.4,4.1-0.6,6.3-0.6c17.9,0,30.9,14.5,30.9,32.4s-13.1,32.4-30.9,32.4c-2.1,0-4.2-0.2-6.3-0.6
			c-8-1.7-12.8-0.3-16.3,2.1c-6.1,4.2-5,13.6,1.8,16.4c6.5,2.7,13.7,4.2,21.1,4.1c29.2-0.2,53.3-23.9,54-53.1c0-0.4,0-0.9,0-1.3
			S161.1,56.4,161.1,56z"/>
		<path class="st1" d="M25.5,57.3c0-5.8,2-10.6,2.9-16c1.2-6.7-1.3-12.5-6.6-14.6c-5.3-2.1-9.7,0.8-12,5C5.7,39.3,3.4,48,3.4,57.3
			s2.3,18,6.4,25.6c2.3,4.2,6.7,7.1,12,5c5.3-2.1,7.8-7.9,6.6-14.6C27.5,67.9,25.5,63.1,25.5,57.3z"/>
	</g>
	<g>
		<path class="st1" d="M204.7,68.2c-2.9,2.9-6.3,4.3-10.2,4.1c-3.8-0.1-7.1-1.5-9.8-4.3c-2.7-2.8-4-6.1-4-10c0-4,1.4-7.5,4.3-10.3
			c2.9-2.9,6.3-4.3,10.2-4.2c3.8,0.1,7.1,1.6,9.8,4.4c2.7,2.8,4,6.1,4,10C209.1,61.9,207.6,65.3,204.7,68.2z M194.5,68.7
			c3,0.1,5.6-0.9,7.7-3.1c2.2-2.3,3.2-4.9,3.1-7.9c-0.1-2.9-1.2-5.4-3.1-7.4c-2-2.1-4.4-3.1-7.2-3.1c-2.9,0-5.4,1-7.5,3.1
			c-2.1,2.1-3.1,4.5-3.1,7.5c0,2.9,0.9,5.5,2.9,7.6C189.3,67.5,191.7,68.6,194.5,68.7z"/>
		<path class="st1" d="M237.4,59.8c0,3.6-1.2,6.6-3.5,8.9c-2.3,2.4-5.2,3.6-8.7,3.6s-6.4-1.2-8.7-3.6c-2.3-2.4-3.4-5.4-3.4-8.9V44.1
			h3.7v16.1c0,2.3,0.8,4.3,2.5,6c1.7,1.6,3.7,2.5,5.9,2.5s4.2-0.8,5.9-2.5c1.7-1.7,2.6-3.7,2.6-6V44.1h3.7V59.8z"/>
		<path class="st1" d="M246.2,40.8h-3.6v-6.4h3.6V40.8z M246.2,71.7h-3.6V44.1h3.6V71.7z"/>
		<path class="st1" d="M274.6,68.2c-2.9,2.9-6.3,4.3-10.2,4.1c-3.8-0.1-7.1-1.5-9.8-4.3c-2.7-2.8-4-6.1-4-10c0-4,1.4-7.5,4.3-10.3
			c2.9-2.9,6.3-4.3,10.2-4.2c3.8,0.1,7.1,1.6,9.8,4.4c2.7,2.8,4,6.1,4,10C278.9,61.9,277.5,65.3,274.6,68.2z M264.4,68.7
			c3,0.1,5.6-0.9,7.7-3.1c2.2-2.3,3.2-4.9,3.1-7.9c-0.1-2.9-1.2-5.4-3.1-7.4c-2-2.1-4.4-3.1-7.2-3.1c-2.9,0-5.4,1-7.5,3.1
			c-2.1,2.1-3.1,4.5-3.1,7.5c0,2.9,0.9,5.5,2.9,7.6C259.2,67.5,261.5,68.6,264.4,68.7z"/>
		<path class="st1" d="M286.9,71.7h-3.9V44.1h3.4V48c0.8-1.5,1.9-2.6,3.4-3.4c1.4-0.7,2.8-1.1,4.3-1v3.7c-1.7,0-3.1,0.5-4.2,1.4
			s-1.8,1.6-2.2,2.3c-0.6,1.1-0.9,2.5-0.9,4.3V71.7z"/>
		<path class="st1" d="M323.5,58c0.1,4-1.3,7.4-4.3,10.3c-2.9,2.9-6.4,4.3-10.3,4.1c-3.8-0.1-7.1-1.5-9.8-4.4c-2.7-2.8-4-6.1-4-10
			c0-4,1.4-7.5,4.3-10.3c2.9-2.9,6.3-4.3,10.2-4.2c4.1,0.1,7.4,1.8,10.1,4.9V34.6h3.6V58z M309,68.8c3,0.1,5.6-0.9,7.7-3.1
			c2.2-2.3,3.2-4.9,3.1-7.9c0-2.9-1.1-5.4-3.1-7.4c-2-2.1-4.3-3.1-7.2-3.1c-2.9,0-5.4,1-7.5,3.1c-2.1,2.1-3.1,4.5-3.1,7.5
			c0,2.9,0.9,5.5,2.9,7.6C303.8,67.6,306.1,68.7,309,68.8z"/>
		<path class="st1" d="M355.2,62.6c-1,2.9-2.8,5.3-5.2,7.1c-2.5,1.7-5.2,2.6-8.2,2.7c-3.8,0-7.1-1.3-10-4.1
			c-2.9-2.9-4.4-6.2-4.4-10.1c-0.1-4.1,1.4-7.7,4.3-10.6c3-3,6.6-4.4,10.7-4.2c3.7,0.2,6.9,1.7,9.6,4.5c2.6,2.8,3.9,5.8,3.9,9.3v2
			h-24.7c0.3,2.8,1.4,5.1,3.5,6.9s4.5,2.7,7.3,2.7c4.3,0,7.4-2.1,9.3-6H355.2z M352.2,55.8c-0.5-2.6-1.7-4.6-3.6-6.2
			c-1.9-1.6-4.2-2.4-6.8-2.5c-2.7,0-5,0.8-7,2.4s-3.2,3.7-3.7,6.3H352.2z"/>
		<path class="st1" d="M363.6,71.7h-3.9V44.1h3.4V48c0.8-1.5,1.9-2.6,3.4-3.4c1.4-0.7,2.8-1.1,4.3-1v3.7c-1.7,0-3.1,0.5-4.2,1.4
			c-1.1,0.9-1.8,1.6-2.2,2.3c-0.6,1.1-0.9,2.5-0.9,4.3V71.7z"/>
	</g>
</g>
</svg>
