<?xml version="1.0" encoding="utf-8"?>
<!-- Generator: Adobe Illustrator 25.2.0, SVG Export Plug-In . SVG Version: 6.00 Build 0)  -->
<svg version="1.1" id="Слой_2" xmlns="http://www.w3.org/2000/svg" xmlns:xlink="http://www.w3.org/1999/xlink" x="0px" y="0px"
	 viewBox="0 0 166 164.8" style="enable-background:new 0 0 166 164.8;" xml:space="preserve">
<style type="text/css">
	.st0{fill:#515151;}
	.st1{fill:#12AD3E;}
</style>
<g>
	<g>
		<path class="st0" d="M23.9,157.1c-2.3,2.3-5.2,3.5-8.4,3.4c-3.1-0.1-5.9-1.3-8-3.6s-3.3-5.1-3.3-8.2c0-3.3,1.2-6.2,3.5-8.5
			c2.3-2.4,5.2-3.5,8.4-3.4c3.1,0.1,5.9,1.3,8,3.7c2.2,2.3,3.3,5.1,3.3,8.2C27.5,151.9,26.3,154.8,23.9,157.1z M15.5,157.5
			c2.5,0.1,4.6-0.7,6.4-2.6c1.8-1.9,2.6-4,2.6-6.5c-0.1-2.4-1-4.4-2.6-6.1c-1.6-1.7-3.6-2.5-5.9-2.5c-2.4,0-4.5,0.8-6.2,2.5
			c-1.7,1.7-2.5,3.7-2.6,6.2c0,2.4,0.7,4.5,2.3,6.3S13.1,157.5,15.5,157.5z"/>
		<path class="st0" d="M50.8,150.3c0,2.9-1,5.4-2.9,7.4c-1.9,2-4.3,2.9-7.2,2.9s-5.3-1-7.2-2.9c-1.9-2-2.8-4.4-2.8-7.4v-12.9h3.1
			v13.3c0,1.9,0.7,3.5,2.1,4.9c1.4,1.4,3,2,4.9,2s3.5-0.7,4.9-2c1.4-1.4,2.1-3,2.1-4.9v-13.3h3.1V150.3z"/>
		<path class="st0" d="M58.1,134.6h-3v-5.3h3V134.6z M58.1,160h-3v-22.7h3V160z"/>
		<path class="st0" d="M81.5,157.1c-2.4,2.3-5.2,3.5-8.4,3.4c-3.1-0.1-5.9-1.3-8-3.6c-2.2-2.3-3.3-5.1-3.3-8.2
			c0-3.3,1.2-6.2,3.5-8.5c2.3-2.4,5.2-3.5,8.4-3.4c3.1,0.1,5.9,1.3,8,3.7c2.2,2.3,3.3,5.1,3.3,8.2C85,151.9,83.9,154.8,81.5,157.1z
			 M73.1,157.5c2.5,0.1,4.6-0.7,6.4-2.6c1.8-1.9,2.6-4,2.6-6.5c-0.1-2.4-1-4.4-2.6-6.1c-1.6-1.7-3.6-2.5-5.9-2.5
			c-2.4,0-4.5,0.8-6.2,2.5c-1.7,1.7-2.5,3.7-2.6,6.2c0,2.4,0.7,4.5,2.3,6.3S70.7,157.5,73.1,157.5z"/>
		<path class="st0" d="M91.6,160h-3.2v-22.7h2.8v3.2c0.6-1.2,1.6-2.2,2.8-2.8c1.2-0.6,2.3-0.9,3.5-0.8v3c-1.4,0-2.5,0.4-3.4,1.2
			s-1.5,1.4-1.8,1.9c-0.5,0.9-0.8,2-0.8,3.5V160z"/>
		<path class="st0" d="M121.8,148.8c0.1,3.3-1.1,6.1-3.5,8.5c-2.4,2.3-5.3,3.5-8.5,3.4c-3.1-0.1-5.9-1.3-8-3.6
			c-2.2-2.3-3.3-5.1-3.3-8.2c0-3.3,1.2-6.2,3.5-8.5c2.3-2.4,5.2-3.5,8.4-3.4c3.3,0.1,6.1,1.5,8.4,4v-11.4h3V148.8z M109.8,157.7
			c2.5,0.1,4.6-0.7,6.4-2.6c1.8-1.9,2.6-4,2.5-6.5c0-2.4-0.9-4.4-2.5-6.1c-1.6-1.7-3.6-2.5-5.9-2.5c-2.4,0-4.5,0.8-6.2,2.5
			c-1.7,1.7-2.5,3.7-2.6,6.2c0,2.4,0.8,4.5,2.4,6.3C105.5,156.7,107.5,157.6,109.8,157.7z"/>
		<path class="st0" d="M147.9,152.6c-0.8,2.4-2.3,4.4-4.3,5.8c-2,1.4-4.3,2.2-6.7,2.2c-3.1,0-5.9-1.1-8.2-3.4
			c-2.4-2.3-3.6-5.1-3.7-8.3c-0.1-3.4,1.1-6.3,3.6-8.8c2.5-2.5,5.4-3.6,8.8-3.4c3,0.2,5.7,1.4,7.9,3.7c2.2,2.3,3.2,4.8,3.2,7.6v1.6
			H128c0.2,2.3,1.2,4.2,2.9,5.7s3.7,2.2,6,2.2c3.6,0,6.1-1.7,7.7-5H147.9z M145.4,146.9c-0.4-2.1-1.4-3.8-3-5.1
			c-1.6-1.3-3.4-2-5.6-2c-2.2,0-4.1,0.6-5.7,2s-2.6,3.1-3.1,5.2H145.4z"/>
		<path class="st0" d="M154.9,160h-3.2v-22.7h2.8v3.2c0.6-1.2,1.6-2.2,2.8-2.8c1.2-0.6,2.3-0.9,3.5-0.8v3c-1.4,0-2.5,0.4-3.4,1.2
			s-1.5,1.4-1.8,1.9c-0.5,0.9-0.8,2-0.8,3.5V160z"/>
	</g>
	<g>
		<circle class="st1" cx="67" cy="58.5" r="32.4"/>
		<path class="st0" d="M161.9,57.2c-0.7-29.2-24.8-52.9-54-53.1c-7.5-0.1-14.6,1.4-21.1,4.1c-6.8,2.8-7.9,12.3-1.8,16.4
			c3.5,2.4,8.3,3.8,16.3,2.1c2-0.4,4.1-0.6,6.3-0.6c17.9,0,30.9,14.5,30.9,32.4s-13.1,32.4-30.9,32.4c-2.1,0-4.2-0.2-6.3-0.6
			c-8-1.7-12.8-0.3-16.3,2.1c-6.1,4.2-5,13.6,1.8,16.4c6.5,2.7,13.7,4.2,21.1,4.1c29.2-0.2,53.3-23.9,54-53.1c0-0.4,0-0.9,0-1.3
			S161.9,57.7,161.9,57.2z"/>
		<path class="st0" d="M26.2,58.5c0-5.8,2-10.6,2.9-16c1.2-6.7-1.3-12.5-6.6-14.6c-5.3-2.1-9.7,0.8-12,5c-4.1,7.6-6.4,16.4-6.4,25.6
			s2.3,18,6.4,25.6c2.3,4.2,6.7,7.1,12,5c5.3-2.1,7.8-7.9,6.6-14.6C28.2,69.1,26.2,64.3,26.2,58.5z"/>
	</g>
</g>
</svg>
